<svg xmlns="http://www.w3.org/2000/svg" viewBox="0 0 64 64">
  <!-- Background circle with navy blue gradient -->
  <defs>
    <linearGradient id="bg" x1="0%" y1="0%" x2="100%" y2="100%">
      <stop offset="0%" style="stop-color:#1e3a5f"/>
      <stop offset="100%" style="stop-color:#1e40af"/>
    </linearGradient>
  </defs>
  <rect width="64" height="64" rx="14" fill="url(#bg)"/>
  <!-- Document icon -->
  <path
    d="M22 48V16a3 3 0 013-3h10.172a2 2 0 011.414.586l8.828 8.828a2 2 0 01.586 1.414V48a3 3 0 01-3 3H25a3 3 0 01-3-3z"
    fill="none"
    stroke="white"
    stroke-width="2.5"
    stroke-linecap="round"
    stroke-linejoin="round"
  />
  <!-- Folded corner -->
  <path
    d="M35 13v9a2 2 0 002 2h9"
    fill="none"
    stroke="white"
    stroke-width="2.5"
    stroke-linecap="round"
    stroke-linejoin="round"
  />
  <!-- Text lines -->
  <path d="M28 32h12M28 38h12M28 44h8" fill="none" stroke="white" stroke-width="2" stroke-linecap="round"/>
</svg>
